<svg height="512" viewBox="0 0 60 60" width="512" xmlns="http://www.w3.org/2000/svg"><g id="Page-1" fill="none" fill-rule="evenodd"><g id="012---Study-Books" fill="rgb(0,0,0)" fill-rule="nonzero" transform="translate(-1)"><path id="Shape" d="m14 52h3c.5522847 0 1-.4477153 1-1s-.4477153-1-1-1h-3c-.5522847 0-1 .4477153-1 1s.4477153 1 1 1z"/><path id="Shape" d="m20 51c0 .5522847.4477153 1 1 1h28c.5522847 0 1-.4477153 1-1s-.4477153-1-1-1h-28c-.5522847 0-1 .4477153-1 1z"/><path id="Shape" d="m54 50h-1c-.5522847 0-1 .4477153-1 1s.4477153 1 1 1h1c.5522847 0 1-.4477153 1-1s-.4477153-1-1-1z"/><path id="Shape" d="m51 48h3c.5522847 0 1-.4477153 1-1s-.4477153-1-1-1h-3c-.5522847 0-1 .4477153-1 1s.4477153 1 1 1z"/><path id="Shape" d="m29 48h18c.5522847 0 1-.4477153 1-1s-.4477153-1-1-1h-18c-.5522847 0-1 .4477153-1 1s.4477153 1 1 1z"/><path id="Shape" d="m14 48h11c.5522847 0 1-.4477153 1-1s-.4477153-1-1-1h-11c-.5522847 0-1 .4477153-1 1s.4477153 1 1 1z"/><path id="Shape" d="m59 38h-47c-3.05401531.0011405-5.97022083 1.2713251-8.05107692 3.5067331-2.08085609 2.2354079-3.1392149 5.2349913-2.92192308 8.2812669.51584844 5.8291998 5.43239982 10.2786701 11.284 10.212h46.689c1.1045695 0 2-.8954305 2-2v-2c0-1.1045695-.8954305-2-2-2v-10c1.1045695 0 2-.8954305 2-2v-2c0-1.1045695-.8954305-2-2-2zm-2 16h-44.794c-2.56605222.0528123-4.77438878-1.8031484-5.164-4.34-.18789283-1.4283901.24859783-2.8684974 1.19789838-3.9522088.94930056-1.0837114 2.31940782-1.705997 3.76010162-1.7077912h45zm2-12h-47c-2.01582542-.0002292-3.93389819.8685842-5.26318503 2.3840209-1.32928684 1.5154368-1.94073621 3.5303734-1.67781497 5.5289791.51751917 3.5348812 3.57481092 6.1387339 7.147 6.087h46.794v2h-46.689c-4.80315755.0712277-8.85102388-3.5683223-9.289-8.352-.17998273-2.493272.68510933-4.9490802 2.38802241-6.7790764 1.70291309-1.8299961 4.09021786-2.8693009 6.58997759-2.8689236l47-.0000001z"/><path id="Shape" d="m59.669 10.118-27.99-10c-.4419711-.15600345-.9240289-.15600345-1.366 0l-27.983 10c-.79312091.2858868-1.32179815 1.038427-1.32179815 1.8815s.52867724 1.5956132 1.32179815 1.8815l13.67 4.884v8.235c0 3.888 13.465 4 15 4s15-.112 15-4v-8.235l3-1.065v2.3c0 1.1045695.8954305 2 2 2h2c1.1045695 0 2-.8954305 2-2v-3c-.0029839-.4630681-.1146467-.9189675-.326-1.331l5-1.788c.7931209-.2858868 1.3217981-1.038427 1.3217981-1.8815s-.5286772-1.5956132-1.3217981-1.8815zm-15.669 14.682c-3.809-1.734-11.835-1.8-13-1.8s-9.191.066-13 1.8v-10.712c.6-.77 5.316-2.088 13-2.088s12.4 1.318 13 2.088zm-13 4.2c-7.4 0-12.047-1.222-12.916-2 .869-.778 5.518-2 12.916-2s12.047 1.222 12.916 2c-.869.778-5.516 2-12.916 2zm18.469-13.595-3.469 1.237v-2.642c0-3.888-13.465-4-15-4s-15 .112-15 4v2.641l-13-4.641 28.014-10 19.986 7.142v5.042c-.6323143.2247022-1.1712592.6545205-1.531 1.221zm3.531 4.595h-2v-3c0-.5522847.4477153-1 1-1s1 .4477153 1 1zm0-5.856v-4.287l6 2.143z"/></g></g></svg>