<?xml version="1.0" encoding="iso-8859-1"?>
<!-- Generator: Adobe Illustrator 19.0.0, SVG Export Plug-In . SVG Version: 6.00 Build 0)  -->
<svg version="1.1" id="Capa_1" xmlns="http://www.w3.org/2000/svg" xmlns:xlink="http://www.w3.org/1999/xlink" x="0px" y="0px"
	 viewBox="0 0 496 496" style="enable-background:new 0 0 496 496;" xml:space="preserve">
<g>
	<g>
		<g>
			<path d="M278.032,186.688L328,165.272V149.6c0-3.088,2.504-5.6,5.88-5.6c2.6,0,4.904,1.656,5.72,4.088l0.456,1.376
				C343.752,160.552,354.088,168,365.784,168c0.016,0,0.032,0,0.056,0c9.056-0.024,17.464-4.528,22.496-12.072l18.592-27.888
				c3.344-5.032,8.96-8.04,15.016-8.04C440.728,120,456,104.728,456,85.944c0-11.424-5.672-22.016-15.168-28.336l-0.8-0.528
				C435.008,53.728,432,48.112,432,42.056V32c0-17.648-14.352-32-32-32s-32,14.352-32,32v24h-6.064
				c-9.432,0-18.296-3.672-24.968-10.344C328.288,36.976,316.272,32,304,32c-12.272,0-24.288,4.976-32.968,13.656L260.688,56
				h-18.096c-12.104-32.632-43.464-56-80.256-56h-4.672C110.432,0,72,38.432,72,85.664c0,13.24,3.136,26.488,9.048,38.312
				l12.728,25.464c-1.656,1.168-3.448,2.136-5.344,2.856l-30.56,11.456C47.176,167.76,40,178.128,40,189.536
				c0,9.232,4.584,17.808,12.264,22.92C59.616,217.36,64,225.552,64,234.384v7.392c0,7.04-2.744,13.656-7.72,18.632l-2.624,2.624
				C50.064,266.624,48,271.6,48,276.688C48,287.336,56.664,296,67.312,296h8c0.872,0,1.728,0.352,2.344,0.968l4.232,4.232
				c12.216,12.224,31.528,14.136,45.904,4.544c1.72-1.144,3.72-1.744,5.784-1.744c5.752,0,10.424,4.672,10.424,10.424V328
				c0,17.648,14.352,32,32,32c14.88,0,27.432-10.208,30.984-24h31.48l31.672,12.672c1.112,0.448,1.864,1.552,1.864,2.76
				c0,1.368-0.92,2.552-2.248,2.888L247.016,360h-24.184C210.24,360,200,370.24,200,382.832c0,8.704,4.832,16.52,12.624,20.424
				l9.464,4.72c6.112,3.056,9.912,9.216,9.912,16.512c0,12.672,7.048,24.056,18.4,29.704l7.096,3.528
				c4.008,2,6.504,6.024,6.504,10.504C264,483.536,276.464,496,291.776,496h7.552c4.272,0,8.568-1.008,12.432-2.928l23.664-11.832
				l13.952,9.296c5.368,3.576,11.608,5.464,18.064,5.464c17.952,0,32.56-14.608,32.56-32.56v-12.128l8-8v-22.624l-2.344-2.344
				c-3.224-3.224-5.656-8.376-5.656-11.976c0-5.816,3.232-11.04,8.416-13.632l2.776-1.376C424.024,384.928,432,372.016,432,357.664
				c0-19.592-15.04-35.744-34.184-37.504l-1.392-4.152c-3.68-11.064-11.056-20.704-20.744-27.168
				c-8.672-5.784-18.776-8.84-29.2-8.84h-70.496c-3.2,0-6.208-1.248-8.48-3.512c-2.256-2.264-3.504-5.272-3.496-8.48
				c0.008-6.616,5.4-12,12.008-12c0.008,0,0.008,0,0.008,0l14.008,0.008c12.12,0,21.976-9.856,21.976-22.368
				c0-9.16-5.488-17.264-13.976-20.656l-19.832-7.936c-3.768-1.504-6.192-5.112-6.184-9.216
				C272.008,191.848,274.376,188.256,278.032,186.688z M88,85.664C88,47.248,119.248,16,157.664,16h4.672
				C200.752,16,232,47.248,232,85.664c0,10.768-2.544,21.536-7.36,31.152L176,214.112c-3.048,6.096-9.184,9.888-16,9.888
				c-6.824,0-12.952-3.792-16-9.888l-48.64-97.288C90.544,107.2,88,96.432,88,85.664z M272.248,219.912l19.832,7.936
				c2.392,0.952,3.92,3.232,3.92,6.192c0,3.296-2.68,5.976-5.968,5.976l-14-0.008c-0.008,0-0.016,0-0.024,0
				c-15.424,0-27.984,12.544-28.008,27.984c-0.008,7.48,2.888,14.504,8.176,19.8c5.296,5.296,12.32,8.208,19.8,8.208h70.496
				c7.264,0,14.296,2.128,20.336,6.16c6.752,4.496,11.872,11.208,14.448,18.912L386.232,336h8.104
				C406.28,336,416,345.72,416,357.664c0,8.256-4.592,15.688-11.96,19.376l-2.776,1.376C390.616,383.76,384,394.464,384,406.368
				c0,6.832,3.072,14.64,8,20.696v9.624l-8,8v18.752c0,9.136-7.432,16.56-16.56,16.56c-3.28,0-6.464-0.96-9.184-2.784
				l-21.672-14.456l-31.96,15.984c-1.648,0.824-3.472,1.256-5.296,1.256h-7.552C285.28,480,280,474.72,280,468.224
				c0-10.592-5.888-20.112-15.384-24.832l-7.096-3.528c-5.872-2.928-9.52-8.816-9.52-15.784c0-12.984-7.192-24.64-18.776-30.416
				l-9.448-4.72c-2.328-1.16-3.776-3.504-3.776-6.112c0-3.76,3.072-6.832,6.832-6.832H248l25.624-6.16
				c8.464-2.112,14.376-9.68,14.376-18.408c0-7.808-4.68-14.72-11.928-17.616L241.536,320H192v8c0,8.824-7.184,16-16,16
				c-8.824,0-16-7.176-16-16v-13.576C160,299.848,148.152,288,133.576,288c-5.232,0-10.304,1.528-14.656,4.44
				c-8.072,5.368-18.872,4.288-25.72-2.544l-4.232-4.232C85.376,282.064,80.4,280,75.312,280h-8C65.48,280,64,278.512,64,276.688
				c0-0.872,0.352-1.728,0.968-2.344l2.624-2.624c8-8,12.408-18.632,12.408-29.944v-7.392c0-14.192-7.048-27.368-18.856-35.232
				C57.92,197,56,193.408,56,189.536c0-4.784,3.008-9.128,7.48-10.808l30.568-11.464c2.424-0.912,4.712-2.112,6.904-3.472
				l28.728,57.464C135.464,232.824,147.08,240,160,240s24.536-7.176,30.312-18.736l48.64-97.288
				C244.864,112.152,248,98.904,248,85.664c0-4.664-0.48-9.2-1.2-13.664h20.512l15.032-15.032C288.048,51.264,295.936,48,304,48
				c8.064,0,15.952,3.264,21.656,8.968C335.352,66.664,348.232,72,361.936,72H384V32c0-8.816,7.176-16,16-16c8.816,0,16,7.184,16,16
				v10.056c0,11.424,5.672,22.016,15.16,28.336l0.8,0.528c5.032,3.352,8.04,8.968,8.04,15.024c0,9.952-8.104,18.056-18.056,18.056
				c-11.424,0-22.016,5.672-28.336,15.168l-18.592,27.888c-2.064,3.088-5.512,4.936-9.216,4.944c-0.008,0-0.016,0-0.024,0
				c-4.792,0-9.024-3.056-10.528-7.56l-0.456-1.384c-3.008-9-11.416-15.056-21.2-15.056C321.688,128,312,137.688,312,149.6v5.128
				l-40.272,17.256c-9.536,4.096-15.72,13.448-15.728,23.872C255.992,206.52,262.368,215.96,272.248,219.912z"/>
			<path d="M160,136c26.472,0,48-21.528,48-48s-21.528-48-48-48s-48,21.528-48,48S133.528,136,160,136z M160,56
				c17.648,0,32,14.352,32,32s-14.352,32-32,32s-32-14.352-32-32S142.352,56,160,56z"/>
			<rect x="152" y="152" width="16" height="16"/>
		</g>
	</g>
</g>
<g>
</g>
<g>
</g>
<g>
</g>
<g>
</g>
<g>
</g>
<g>
</g>
<g>
</g>
<g>
</g>
<g>
</g>
<g>
</g>
<g>
</g>
<g>
</g>
<g>
</g>
<g>
</g>
<g>
</g>
</svg>
