<?xml version="1.0" encoding="utf-8"?>
<!-- Generator: Adobe Illustrator 25.2.3, SVG Export Plug-In . SVG Version: 6.00 Build 0)  -->
<svg version="1.1" id="Layer_1" xmlns="http://www.w3.org/2000/svg" xmlns:xlink="http://www.w3.org/1999/xlink" x="0px" y="0px"
	 viewBox="0 0 377 343" style="enable-background:new 0 0 377 343;" xml:space="preserve">
<style type="text/css">
	.st0{fill:#99CCCC;}
	.st1{fill:#FFFFFF;stroke:#000000;stroke-miterlimit:10;}
	.st2{fill:#BFD6BF;}
	.st3{fill:#E6E6E6;stroke:#000000;stroke-miterlimit:10;}
	.st4{fill:none;stroke:#000000;stroke-miterlimit:10;}
	.st5{fill:none;stroke:#000000;stroke-width:0.5;stroke-linecap:round;stroke-linejoin:round;}
	.st6{stroke:#000000;stroke-miterlimit:10;}
</style>
<g>
	<g>
		<circle class="st0" cx="190" cy="168" r="126"/>
	</g>
	<path class="st1" d="M304.5,121.5"/>
	<g id="XMLID_2_">
		<g>
			<path class="st2" d="M180.5,93.5c1.6,15.2-16.4,21-19,23c-2.7,2.1-2,9-3,10c-5.9,5.9-14.6,5.6-15.9,5.9
				c-10.1,3.1-12,2.2-13.1,7.1c-1.1,4.9,0.9,7.7,4,17c4,12,19,29.4,11,29c-8.2-0.4-37.9-18.8-39.3-25.2
				c-1.1-4.9-13.6-11.7-16.7-19.8c-1.5-3.8-1.5-3.1-4-12c-1.6-5.8-4-9-5-20l1-1c0.8-1.3,0.2-0.6,1-2c0.9-1.6,3.1-4.4,4-6
				c2.1-3.6,4.4-6.8,7-10c5-6,9.5-10.8,14-15l8-6l7-5l10-6c1.2-0.1,3.1-0.2,5.1,0.7c6.9,3.2,7.1,15.3,12.9,20.3
				c4.1,3.5,18.8-2.9,26.4,3.9C179.7,85.7,180.2,90.7,180.5,93.5z"/>
		</g>
		<g>
		</g>
	</g>
	<path class="st1" d="M108.5,146.5"/>
	<g id="XMLID_3_">
		<g>
			<path class="st2" d="M177.5,148.5c0.5,1.8-1.9,3.9-3,5c-4.6,4.2-13.8,7.4-19,3c-2.5-2.2-4.4-6.4-3-10c0.1-0.3,1.3-3.1,4-4
				c2.4-0.8,4.2,0.6,8,2C172.4,147.5,176.8,146.2,177.5,148.5z"/>
		</g>
		<g>
		</g>
	</g>
	<g id="XMLID_5_">
		<g>
			<path class="st2" d="M267.5,69.5c-5.1-0.8-11.5,0.2-16,4c-3.9,3.2-3.5,6.8-7,9c-5.9,3.7-15.6-1-20-4c-5.5-3.8-1.2-15-6-18
				c-8-5-8.1-14.2-8-16c7.5,1.1,17.3,3.4,28,8C251.4,58,261,64,267.5,69.5z"/>
		</g>
		<g>
		</g>
	</g>
	<path class="st2" d="M160.5,193.5c-7,1-16.8,7.2-17,22c-0.2,12.3,6.7,17.2,8,18c7.7,4.8,10.1,9,12,13c3.2,6.8-3.4,15.3-1,28
		c0.5,2.7,1.2,6.4,4,8c6.5,3.7,14.1-10.6,41-29c1.5-1.1,7.3-2.6,11-7c0,0,8.5-7.1,8-19c0-1-0.1-5.3-1-6.3c-1.4-1.6-5.2-1.1-18-6.7
		c-9.6-4.2-10-9.9-14-14c-3.6-3.7-8.3-3.1-20-9C167.5,188.5,163,193.1,160.5,193.5z"/>
	<g id="XMLID_6_">
		<g>
			<path class="st2" d="M302.5,112.5l6,14c-2-2-4-3-6-4c-1.1-0.5-1-2-3-3c-1.4-0.7-3-1-6,1c-1.9,1.3-1,3.7-4,5
				c-4.7,2.1-9.7,6.8-13,4c-1.8-1.5-3.3-3.1-3-5c0.1-0.8,1.5-3.1,5-7c1.9-2,5.8-1.6,7-4c3-6,8.4-8.2,12-10L302.5,112.5z"/>
		</g>
		<g>
		</g>
	</g>
	<g id="XMLID_4_">
		<g>
			<path class="st2" d="M315,154.5c0.2,4.7,0.3,9.3,0.5,14c0,6.4-0.5,13.8-2,22c-2.7,14.8-7.8,26.6-12.3,35c-5.1-5,2.9-19.4-4.1-26
				c-5.7-5.5-4.1-3-17.3-3c-4.4,0-13-3.1-15.3-14c-2.4-11.8-2-8.8-3.1-18c-1.2-10.9,9.2-23.4,22.4-24c9.9-0.5,7.8,2,10.2,6
				c3.6,6,6.3,4,12.2,5C311.6,152.4,306.8,152.5,315,154.5z"/>
		</g>
		<g>
		</g>
	</g>
</g>
<path class="st1" d="M394.5,198.5"/>
<g>
	<path class="st3" d="M183.4,172.1c-1.5,1.9-5.9,6.7-5.2,7.8c0.9,1.4,8.8-3.2,11.3-4.5"/>
	<path class="st3" d="M190.5,168.6c-0.4-0.7-7.1-9.4-8.8-8.7c-1.6,0.6,1.8,8.4,2.1,9.5"/>
	<path class="st3" d="M217.4,164.7c-0.2-1.4-3.5-15.2-0.8-16.5c2-1,7.5,7,12.7,15.1"/>
	<path class="st3" d="M183.6,172.5c-1.3-1.2-0.5-3.4,1.2-3.6c27.8-3.6,47.8-6.1,51.2-6.6c0.7-0.1,2.7-0.4,5.2,0.2
		c1.5,0.3,2.2,0.8,3.7,1.4c5.6,2.5,8.7,2.1,8.9,3.6c0.2,1-1,1.9-2.3,2.9c-2.4,1.9-4.9,2.5-5.5,2.7c-16.2,3.7-24.1,4.5-24.1,4.5
		c-7,0.8-10.5,0.8-11.1,0.8c-10,0-15.7-1.3-22.1-3.3C186.6,174.4,184.9,173.8,183.6,172.5z"/>
	<path class="st3" d="M231.9,175.3c0.3-2.7-2.6-3.1-4.9-2.6c-2,0.5-5.3,1.2-6.2,4.3c-0.9,3.2-3.4,17.7-1.1,18.8
		C222.5,197.1,231,182.2,231.9,175.3z"/>
	<path class="st1" d="M238.6,165.4"/>
	<g id="XMLID_1_">
		<g>
			<path d="M242.5,163.5c0.9,0.3,3.1,0.5,3,1.2c-0.1,0.6-1.7,0-5.1,1.1c-1.8,0.5-3,1.2-4,0.6c-0.4-0.2-0.8-0.7-0.8-1.2
				c0-1.2,2.2-2.3,3.9-2.6C239.9,162.4,240.8,162.9,242.5,163.5z"/>
		</g>
		<g>
			<path class="st4" d="M245.5,164.7c-0.1,0.6-1.7,0-5.1,1.1c-1.8,0.5-3,1.2-4,0.6c-0.4-0.2-0.8-0.7-0.8-1.2c0-1.2,2.2-2.3,3.9-2.6
				c0.4-0.1,1.3,0.4,3,1C243.4,163.8,245.6,164,245.5,164.7z"/>
		</g>
	</g>
	<line class="st5" x1="240" y1="162.6" x2="246.5" y2="164.7"/>
	<circle class="st6" cx="196" cy="172.9" r="1.4"/>
	<circle class="st6" cx="201.2" cy="172.2" r="1.4"/>
	<circle class="st6" cx="206" cy="171.6" r="1.4"/>
	<circle class="st6" cx="210.7" cy="171" r="1.4"/>
	<circle class="st6" cx="215.5" cy="170.3" r="1.4"/>
	<circle class="st6" cx="220.6" cy="169.7" r="1.4"/>
	<circle class="st6" cx="225.4" cy="169.1" r="1.4"/>
</g>
<path class="st4" d="M59.5,150.5c-74.7,28.2,39.7,35.5,102,26"/>
</svg>
