<svg id="Capa_1" enable-background="new 0 0 512 512" height="512" viewBox="0 0 512 512" width="512" xmlns="http://www.w3.org/2000/svg"><g><path d="m256 204.493c17.478 0 31.697-14.219 31.697-31.697v-20.406c0-17.478-14.22-31.697-31.697-31.697s-31.697 14.219-31.697 31.697v20.406c0 17.477 14.219 31.697 31.697 31.697zm-16.697-52.103c0-9.207 7.49-16.697 16.697-16.697s16.697 7.49 16.697 16.697v20.406c0 9.207-7.49 16.697-16.697 16.697s-16.697-7.49-16.697-16.697z"/><path d="m146.898 297.883c4.142 0 7.5-3.358 7.5-7.5v-27.65c0-4.142-3.358-7.5-7.5-7.5s-7.5 3.358-7.5 7.5v27.65c0 4.142 3.358 7.5 7.5 7.5z"/><path d="m105.924 297.883c4.142 0 7.5-3.358 7.5-7.5v-27.65c0-4.142-3.358-7.5-7.5-7.5s-7.5 3.358-7.5 7.5v27.65c0 4.142 3.358 7.5 7.5 7.5z"/><path d="m64.95 255.232c-4.142 0-7.5 3.358-7.5 7.5v27.65c0 4.142 3.358 7.5 7.5 7.5s7.5-3.358 7.5-7.5v-27.65c0-4.142-3.358-7.5-7.5-7.5z"/><path d="m499.273 231.892c7.018 0 12.727-5.709 12.727-12.726v-23.528c0-7.017-5.709-12.726-12.727-12.726h-138.947c-4.143 0-7.5 3.358-7.5 7.5s3.357 7.5 7.5 7.5h136.674v18.98h-164.42v-83.288c0-9.642-4.659-18.781-12.465-24.45l-56.615-41.084v-38.087c0-4.142-3.357-7.5-7.5-7.5-4.142 0-7.5 3.358-7.5 7.5v38.087l-56.617 41.086c-7.804 5.667-12.463 14.807-12.463 24.448v49.308h-166.694c-7.017 0-12.726 5.709-12.726 12.726v23.528c0 7.017 5.709 12.726 12.726 12.726h4.704v96.15c-10.108 3.319-17.43 12.839-17.43 24.043v46.486c0 11.204 7.322 20.724 17.43 24.043v18.95h-4.7c-7.02 0-12.73 5.71-12.73 12.73v22.5c0 7.014 5.71 12.72 12.73 12.72h63.856c4.142 0 7.5-3.358 7.5-7.5s-3.358-7.5-7.5-7.5h-61.586v-17.95h89.292v25.453c0 4.142 3.358 7.5 7.5 7.5.02 0 .038-.003.058-.003h387.42c7.02 0 12.73-5.706 12.73-12.72v-22.5c0-7.02-5.711-12.73-12.73-12.73h-4.699v-18.951c10.108-3.319 17.43-12.839 17.43-24.042v-46.486c0-11.203-7.322-20.724-17.43-24.042v-96.151zm-210.401 170.177v72.445h-25.372v-72.459zm-40.372 72.445h-25.369l.033-72.481 25.336.014zm98.351-17.95h45.857v17.95h-45.857zm-146.156-335.27 55.305-40.133 55.303 40.132c3.931 2.854 6.277 7.457 6.277 12.312v174.211h-55.616c-4.143 0-7.5 3.358-7.5 7.5s3.357 7.5 7.5 7.5h68.741c.632 0 1.146.514 1.146 1.146v150.552h-27.979v-72.445c0-8.291-6.745-15.036-15.036-15.036h-65.672c-8.291 0-15.036 6.745-15.036 15.036v72.445h-21.208-6.771v-150.552c0-.632.514-1.146 1.146-1.146h45.395c4.142 0 7.5-3.358 7.5-7.5s-3.358-7.5-7.5-7.5h-32.27v-174.212c0-4.854 2.347-9.457 6.275-12.31zm-185.695 76.618h164.42v18.98h-164.42zm0 154.173c0-5.681 4.622-10.303 10.303-10.303s10.303 4.622 10.303 10.303v46.486c0 5.681-4.622 10.303-10.303 10.303s-10.303-4.622-10.303-10.303zm17.43 89.479v-18.719c10.492-3.086 18.176-12.797 18.176-24.274v-46.486c0-11.478-7.684-21.188-18.176-24.274v-95.917h146.99v76.04c-8.022.934-14.271 7.76-14.271 16.028v117.602h-45.857v-18.825c10.302-3.204 17.803-12.826 17.803-24.168v-46.486c0-13.952-11.351-25.303-25.303-25.303s-25.303 11.351-25.303 25.303v46.486c0 11.342 7.501 20.965 17.803 24.168v18.825zm79.362-32.69c-5.681 0-10.303-4.622-10.303-10.303v-46.486c0-5.681 4.622-10.303 10.303-10.303s10.303 4.622 10.303 10.303v46.486c0 5.681-4.622 10.303-10.303 10.303zm53.357 47.69v17.95h-45.857v-17.95zm331.851 17.95h-89.292v-17.95h89.292zm-89.292-32.95v-18.825c10.302-3.204 17.804-12.826 17.804-24.168v-46.486c0-13.952-11.352-25.303-25.304-25.303s-25.303 11.351-25.303 25.303v46.486c0 11.342 7.501 20.965 17.803 24.168v18.825h-45.857v-117.602c0-8.268-6.25-15.095-14.271-16.028v-76.04h146.99v95.916c-10.492 3.086-18.177 12.797-18.177 24.275v46.486c0 11.478 7.684 21.189 18.177 24.275v18.719h-71.862zm-7.5-32.69c-5.681 0-10.303-4.622-10.303-10.303v-46.486c0-5.681 4.622-10.303 10.303-10.303 5.682 0 10.304 4.622 10.304 10.303v46.486c0 5.681-4.622 10.303-10.304 10.303zm96.792-10.303c0 5.681-4.622 10.303-10.304 10.303-5.681 0-10.303-4.622-10.303-10.303v-46.486c0-5.681 4.622-10.303 10.303-10.303 5.682 0 10.304 4.622 10.304 10.303z"/><path d="m452.265 255.232c-4.143 0-7.5 3.358-7.5 7.5v27.65c0 4.142 3.357 7.5 7.5 7.5s7.5-3.358 7.5-7.5v-27.65c0-4.142-3.358-7.5-7.5-7.5z"/><path d="m411.291 255.232c-4.143 0-7.5 3.358-7.5 7.5v27.65c0 4.142 3.357 7.5 7.5 7.5s7.5-3.358 7.5-7.5v-27.65c0-4.142-3.357-7.5-7.5-7.5z"/><path d="m370.316 255.232c-4.143 0-7.5 3.358-7.5 7.5v27.65c0 4.142 3.357 7.5 7.5 7.5s7.5-3.358 7.5-7.5v-27.65c0-4.142-3.357-7.5-7.5-7.5z"/><path d="m234.667 353.205c0 4.142 3.358 7.5 7.5 7.5h27.667c4.143 0 7.5-3.358 7.5-7.5s-3.357-7.5-7.5-7.5h-27.667c-4.143 0-7.5 3.357-7.5 7.5z"/><path d="m220.128 240.173h71.744c4.143 0 7.5-3.358 7.5-7.5s-3.357-7.5-7.5-7.5h-71.744c-4.142 0-7.5 3.358-7.5 7.5s3.358 7.5 7.5 7.5z"/><path d="m220.128 270.232h71.744c4.143 0 7.5-3.358 7.5-7.5s-3.357-7.5-7.5-7.5h-71.744c-4.142 0-7.5 3.358-7.5 7.5s3.358 7.5 7.5 7.5z"/></g></svg>